STARTFONT 2.1
FONT -Monotype-Times New Roman-Regular-I-Normal--19-140-100-100-P-89-iso8859-4
SIZE 14 100 100
FONTBOUNDINGBOX 22 21 -3 -5

STARTPROPERTIES 24
FOUNDRY "Monotype"
FAMILY_NAME "Times New Roman"
WEIGHT_NAME "Regular"
SLANT "I"
SETWIDTH_NAME "Normal"
ADD_STYLE_NAME ""
PIXEL_SIZE 19
POINT_SIZE 140
RESOLUTION_X 100
RESOLUTION_Y 100
SPACING "P"
AVERAGE_WIDTH 89
CHARSET_REGISTRY "iso8859"
CHARSET_ENCODING "4"
FACE_NAME "Times New Roman Italic ISO Latin4"
_DEC_DEVICE_FONTNAMES "PS=timesnewroman-it-lat4"
COPYRIGHT "Copyright (c) 1994 Monotype Typography Ltd."
CAP_HEIGHT 14
X_HEIGHT 9
WEIGHT 10
QUAD_WIDTH 10
DEFAULT_CHAR 160
FONT_DESCENT 5
FONT_ASCENT 17
ENDPROPERTIES

CHARS 191

STARTCHAR space
ENCODING 32
SWIDTH 250 0
DWIDTH 5 0
BBX 0 0 0 0
BITMAP
ENDCHAR

STARTCHAR exclam
ENCODING 33
SWIDTH 333 0
DWIDTH 6 0
BBX 5 13 1 0
BITMAP
08
18
18
18
30
30
30
20
40
40
00
C0
C0
ENDCHAR

STARTCHAR quotedbl
ENCODING 34
SWIDTH 420 0
DWIDTH 8 0
BBX 6 6 1 7
BITMAP
CC
CC
CC
88
88
88
ENDCHAR

STARTCHAR numbersign
ENCODING 35
SWIDTH 500 0
DWIDTH 10 0
BBX 9 13 1 0
BITMAP
1100
1100
1100
2200
FF80
2200
2200
2200
FF80
4400
4400
4400
4400
ENDCHAR

STARTCHAR dollar
ENCODING 36
SWIDTH 500 0
DWIDTH 10 0
BBX 9 15 0 -1
BITMAP
0400
1F00
3480
3480
3400
3400
1800
0C00
0E00
1300
1300
9300
9600
7C00
2000
ENDCHAR

STARTCHAR percent
ENCODING 37
SWIDTH 833 0
DWIDTH 16 0
BBX 11 13 3 0
BITMAP
3820
6C40
CC80
CC80
CD00
DA00
75C0
0B60
0E60
1660
2660
46C0
8380
ENDCHAR

STARTCHAR ampersand
ENCODING 38
SWIDTH 778 0
DWIDTH 15 0
BBX 13 13 1 0
BITMAP
0380
06C0
0CC0
0D80
0700
0E00
36F0
6660
C360
C3C0
C180
66C8
3830
ENDCHAR

STARTCHAR quoteright
ENCODING 39
SWIDTH 333 0
DWIDTH 6 0
BBX 2 4 3 9
BITMAP
40
C0
40
80
ENDCHAR

STARTCHAR parenleft
ENCODING 40
SWIDTH 333 0
DWIDTH 6 0
BBX 7 17 0 -4
BITMAP
06
0C
18
30
60
60
C0
C0
C0
C0
C0
C0
C0
C0
C0
60
60
ENDCHAR

STARTCHAR parenright
ENCODING 41
SWIDTH 333 0
DWIDTH 6 0
BBX 7 17 -1 -4
BITMAP
0C
0C
06
06
06
06
06
06
06
06
06
0C
0C
18
30
60
C0
ENDCHAR

STARTCHAR asterisk
ENCODING 42
SWIDTH 500 0
DWIDTH 10 0
BBX 6 7 3 6
BITMAP
30
B4
DC
30
DC
B4
30
ENDCHAR

STARTCHAR plus
ENCODING 43
SWIDTH 675 0
DWIDTH 13 0
BBX 9 9 2 0
BITMAP
0800
0800
0800
0800
FF80
0800
0800
0800
0800
ENDCHAR

STARTCHAR comma
ENCODING 44
SWIDTH 250 0
DWIDTH 5 0
BBX 2 4 1 -2
BITMAP
40
C0
40
80
ENDCHAR

STARTCHAR minus
ENCODING 45
SWIDTH 675 0
DWIDTH 13 0
BBX 10 1 2 4
BITMAP
FFC0
ENDCHAR

STARTCHAR period
ENCODING 46
SWIDTH 250 0
DWIDTH 5 0
BBX 2 2 1 0
BITMAP
C0
C0
ENDCHAR

STARTCHAR slash
ENCODING 47
SWIDTH 278 0
DWIDTH 5 0
BBX 7 13 0 0
BITMAP
02
02
04
08
08
10
10
20
20
40
40
80
80
ENDCHAR

STARTCHAR zero
ENCODING 48
SWIDTH 500 0
DWIDTH 10 0
BBX 8 13 1 0
BITMAP
1E
33
63
63
63
63
C3
C6
C6
C6
C6
CC
78
ENDCHAR

STARTCHAR one
ENCODING 49
SWIDTH 500 0
DWIDTH 10 0
BBX 5 13 2 0
BITMAP
18
78
18
18
30
30
30
30
30
60
60
60
F0
ENDCHAR

STARTCHAR two
ENCODING 50
SWIDTH 500 0
DWIDTH 10 0
BBX 9 13 0 0
BITMAP
0700
0F80
1180
0180
0180
0300
0200
0400
0800
1000
2100
7E00
FC00
ENDCHAR

STARTCHAR three
ENCODING 51
SWIDTH 500 0
DWIDTH 10 0
BBX 8 13 1 0
BITMAP
1E
23
03
06
0C
38
0C
06
06
06
04
C8
F0
ENDCHAR

STARTCHAR four
ENCODING 52
SWIDTH 500 0
DWIDTH 10 0
BBX 8 13 1 0
BITMAP
01
03
07
0B
13
26
26
46
FF
FF
0C
0C
0C
ENDCHAR

STARTCHAR five
ENCODING 53
SWIDTH 500 0
DWIDTH 10 0
BBX 8 13 0 0
BITMAP
0F
1F
10
38
3E
06
03
03
03
06
04
C8
F0
ENDCHAR

STARTCHAR six
ENCODING 54
SWIDTH 500 0
DWIDTH 10 0
BBX 9 13 1 0
BITMAP
0380
0C00
1800
3000
6E00
7300
E300
C300
C300
C300
C600
CC00
7800
ENDCHAR

STARTCHAR seven
ENCODING 55
SWIDTH 500 0
DWIDTH 10 0
BBX 8 13 2 0
BITMAP
7F
7E
82
04
04
08
08
10
20
20
40
40
80
ENDCHAR

STARTCHAR eight
ENCODING 56
SWIDTH 500 0
DWIDTH 10 0
BBX 9 13 0 0
BITMAP
0F00
1980
3180
3180
1B00
0E00
1C00
3600
6300
C300
C300
C600
7C00
ENDCHAR

STARTCHAR nine
ENCODING 57
SWIDTH 500 0
DWIDTH 10 0
BBX 9 13 1 0
BITMAP
0F00
1980
3180
6180
6180
6180
6380
6700
3B00
0600
0C00
1800
E000
ENDCHAR

STARTCHAR colon
ENCODING 58
SWIDTH 333 0
DWIDTH 6 0
BBX 4 8 1 0
BITMAP
30
30
00
00
00
00
C0
C0
ENDCHAR

STARTCHAR semicolon
ENCODING 59
SWIDTH 333 0
DWIDTH 6 0
BBX 4 10 1 -2
BITMAP
30
30
00
00
00
00
40
C0
40
80
ENDCHAR

STARTCHAR less
ENCODING 60
SWIDTH 675 0
DWIDTH 13 0
BBX 10 9 1 0
BITMAP
00C0
0300
0C00
3000
C000
3000
0C00
0300
00C0
ENDCHAR

STARTCHAR equal
ENCODING 61
SWIDTH 675 0
DWIDTH 13 0
BBX 10 4 2 3
BITMAP
FFC0
0000
0000
FFC0
ENDCHAR

STARTCHAR greater
ENCODING 62
SWIDTH 675 0
DWIDTH 13 0
BBX 10 9 2 0
BITMAP
C000
3000
0C00
0300
00C0
0300
0C00
3000
C000
ENDCHAR

STARTCHAR question
ENCODING 63
SWIDTH 500 0
DWIDTH 10 0
BBX 7 13 2 0
BITMAP
38
6C
66
06
06
0C
08
10
20
40
00
C0
C0
ENDCHAR

STARTCHAR at
ENCODING 64
SWIDTH 920 0
DWIDTH 17 0
BBX 16 18 1 -5
BITMAP
07F0
180C
2002
2002
40D9
4331
8631
8631
8C61
8C62
8CE2
8D6C
4E71
4001
2002
2002
180C
07F0
ENDCHAR

STARTCHAR A
ENCODING 65
SWIDTH 611 0
DWIDTH 12 0
BBX 12 13 -1 0
BITMAP
0020
0060
00E0
0160
0260
0260
0460
0FE0
1060
1060
2060
4060
E0F0
ENDCHAR

STARTCHAR B
ENCODING 66
SWIDTH 611 0
DWIDTH 12 0
BBX 11 13 0 0
BITMAP
3F80
18C0
1860
1860
30C0
3180
3F00
3180
30C0
60C0
60C0
6180
FF00
ENDCHAR

STARTCHAR C
ENCODING 67
SWIDTH 667 0
DWIDTH 13 0
BBX 12 13 1 0
BITMAP
0390
0C60
1820
3020
6000
6000
C000
C000
C000
C000
C080
6300
3C00
ENDCHAR

STARTCHAR D
ENCODING 68
SWIDTH 722 0
DWIDTH 14 0
BBX 13 13 0 0
BITMAP
3FE0
1830
1818
1818
3018
3018
3018
3018
3030
6030
6060
60C0
FF00
ENDCHAR

STARTCHAR E
ENCODING 69
SWIDTH 611 0
DWIDTH 12 0
BBX 12 13 0 0
BITMAP
3FF0
1810
1810
1800
3080
3080
3F00
3100
3100
6040
6040
60C0
FFC0
ENDCHAR

STARTCHAR F
ENCODING 70
SWIDTH 611 0
DWIDTH 12 0
BBX 12 13 0 0
BITMAP
3FF0
1810
1810
1800
3080
3080
3F00
3100
3100
6000
6000
6000
F000
ENDCHAR

STARTCHAR G
ENCODING 71
SWIDTH 722 0
DWIDTH 14 0
BBX 13 13 1 0
BITMAP
03C8
0C30
1810
3010
6000
6000
C0F0
C060
C060
C0C0
C0C0
60C0
1F00
ENDCHAR

STARTCHAR H
ENCODING 72
SWIDTH 722 0
DWIDTH 14 0
BBX 14 13 0 0
BITMAP
3C3C
1818
1818
1818
3030
3030
3FF0
3030
3030
6060
6060
6060
F0F0
ENDCHAR

STARTCHAR I
ENCODING 73
SWIDTH 333 0
DWIDTH 6 0
BBX 6 13 0 0
BITMAP
3C
18
18
18
30
30
30
30
30
60
60
60
F0
ENDCHAR

STARTCHAR J
ENCODING 74
SWIDTH 444 0
DWIDTH 8 0
BBX 9 13 -1 0
BITMAP
0780
0300
0300
0300
0600
0600
0600
0600
0600
0C00
CC00
CC00
7800
ENDCHAR

STARTCHAR K
ENCODING 75
SWIDTH 667 0
DWIDTH 13 0
BBX 13 13 0 0
BITMAP
3CF0
1840
1880
1900
3200
3400
3C00
3600
3300
6180
60C0
6060
F0F8
ENDCHAR

STARTCHAR L
ENCODING 76
SWIDTH 556 0
DWIDTH 11 0
BBX 10 13 0 0
BITMAP
3C00
1800
1800
1800
3000
3000
3000
3000
3000
6040
6040
6080
FF80
ENDCHAR

STARTCHAR M
ENCODING 77
SWIDTH 833 0
DWIDTH 16 0
BBX 16 13 0 0
BITMAP
3807
180E
180E
1C16
2C2C
2C2C
2C4C
264C
268C
4698
4318
4318
E23C
ENDCHAR

STARTCHAR N
ENCODING 78
SWIDTH 667 0
DWIDTH 13 0
BBX 13 13 0 0
BITMAP
3838
1810
1C10
1C10
2620
2620
2320
2320
21A0
41C0
40C0
40C0
E040
ENDCHAR

STARTCHAR O
ENCODING 79
SWIDTH 722 0
DWIDTH 14 0
BBX 12 13 1 0
BITMAP
03C0
0C60
1830
3030
6030
6030
C030
C060
C060
C0C0
C180
6300
3C00
ENDCHAR

STARTCHAR P
ENCODING 80
SWIDTH 611 0
DWIDTH 12 0
BBX 11 13 0 0
BITMAP
3F80
18C0
1860
1860
3060
30C0
3180
3E00
3000
6000
6000
6000
F000
ENDCHAR

STARTCHAR Q
ENCODING 81
SWIDTH 722 0
DWIDTH 14 0
BBX 12 16 1 -3
BITMAP
03C0
0C60
1830
3030
6030
6030
C030
C060
C060
C0C0
C180
6300
3C00
1000
3F20
E3C0
ENDCHAR

STARTCHAR R
ENCODING 82
SWIDTH 611 0
DWIDTH 12 0
BBX 11 13 0 0
BITMAP
3F80
18C0
1860
1860
30C0
3180
3E00
3600
3300
6180
6180
60C0
F0E0
ENDCHAR

STARTCHAR S
ENCODING 83
SWIDTH 500 0
DWIDTH 10 0
BBX 10 13 0 0
BITMAP
0640
0D80
1880
1880
1800
0C00
0E00
0600
0300
4300
4300
6600
9C00
ENDCHAR

STARTCHAR T
ENCODING 84
SWIDTH 556 0
DWIDTH 11 0
BBX 10 13 1 0
BITMAP
FFC0
8C40
8C40
0C00
1800
1800
1800
1800
1800
3000
3000
3000
7800
ENDCHAR

STARTCHAR U
ENCODING 85
SWIDTH 722 0
DWIDTH 14 0
BBX 13 13 1 0
BITMAP
7838
3010
3010
3010
6020
6020
6020
6020
C020
C040
C040
6080
3F00
ENDCHAR

STARTCHAR V
ENCODING 86
SWIDTH 611 0
DWIDTH 12 0
BBX 12 13 1 0
BITMAP
F070
6020
6040
6080
6100
6100
6200
6400
6400
6800
7000
6000
4000
ENDCHAR

STARTCHAR W
ENCODING 87
SWIDTH 833 0
DWIDTH 16 0
BBX 16 13 0 0
BITMAP
F787
6302
6304
6304
6308
6310
6310
6720
6B40
6B40
7380
6300
4200
ENDCHAR

STARTCHAR X
ENCODING 88
SWIDTH 611 0
DWIDTH 12 0
BBX 14 13 -1 0
BITMAP
1E1C
0C08
0C10
0620
0640
0680
0300
0580
0980
1180
20C0
40C0
E1E0
ENDCHAR

STARTCHAR Y
ENCODING 89
SWIDTH 556 0
DWIDTH 11 0
BBX 10 13 2 0
BITMAP
F1C0
6080
6100
6200
3400
3800
3000
3000
3000
6000
6000
6000
F000
ENDCHAR

STARTCHAR Z
ENCODING 90
SWIDTH 556 0
DWIDTH 11 0
BBX 12 13 -1 0
BITMAP
1FF0
1030
2060
00C0
0180
0300
0600
0C00
1800
3040
6040
C080
FF80
ENDCHAR

STARTCHAR bracketleft
ENCODING 91
SWIDTH 389 0
DWIDTH 7 0
BBX 7 17 0 -4
BITMAP
1E
18
18
18
30
30
30
30
30
60
60
60
60
C0
C0
C0
F0
ENDCHAR

STARTCHAR backslash
ENCODING 92
SWIDTH 278 0
DWIDTH 5 0
BBX 7 13 0 0
BITMAP
80
80
40
40
20
20
10
10
08
08
04
02
02
ENDCHAR

STARTCHAR bracketright
ENCODING 93
SWIDTH 389 0
DWIDTH 7 0
BBX 7 17 -1 -4
BITMAP
1E
06
06
06
0C
0C
0C
0C
0C
18
18
18
18
30
30
30
F0
ENDCHAR

STARTCHAR asciicircum
ENCODING 94
SWIDTH 422 0
DWIDTH 8 0
BBX 7 7 1 6
BITMAP
10
28
28
44
44
82
82
ENDCHAR

STARTCHAR underscore
ENCODING 95
SWIDTH 500 0
DWIDTH 10 0
BBX 10 1 0 -2
BITMAP
FFC0
ENDCHAR

STARTCHAR quoteleft
ENCODING 96
SWIDTH 333 0
DWIDTH 6 0
BBX 2 4 2 9
BITMAP
40
80
C0
80
ENDCHAR

STARTCHAR a
ENCODING 97
SWIDTH 500 0
DWIDTH 10 0
BBX 9 9 1 0
BITMAP
1D00
3300
6300
6300
C600
C600
CE00
D680
6700
ENDCHAR

STARTCHAR b
ENCODING 98
SWIDTH 500 0
DWIDTH 10 0
BBX 8 13 1 0
BITMAP
10
70
30
30
6E
73
63
63
63
C6
C6
CC
78
ENDCHAR

STARTCHAR c
ENCODING 99
SWIDTH 444 0
DWIDTH 8 0
BBX 7 9 1 0
BITMAP
1C
36
66
60
C0
C0
C0
C4
78
ENDCHAR

STARTCHAR d
ENCODING 100
SWIDTH 500 0
DWIDTH 10 0
BBX 9 13 1 0
BITMAP
0080
0380
0180
0180
1B00
3700
6300
6300
C300
C600
C600
CE80
7700
ENDCHAR

STARTCHAR e
ENCODING 101
SWIDTH 444 0
DWIDTH 8 0
BBX 7 9 1 0
BITMAP
1C
36
66
64
C8
F0
C0
C4
78
ENDCHAR

STARTCHAR f
ENCODING 102
SWIDTH 278 0
DWIDTH 5 0
BBX 11 17 -3 -4
BITMAP
00E0
0160
0300
0300
0600
0F00
0600
0600
0600
0C00
0C00
0C00
0C00
1800
1800
D000
E000
ENDCHAR

STARTCHAR g
ENCODING 103
SWIDTH 500 0
DWIDTH 10 0
BBX 10 13 0 -4
BITMAP
1E00
33C0
6300
6300
6300
6600
3C00
6000
3F00
7F80
C300
C200
7C00
ENDCHAR

STARTCHAR h
ENCODING 104
SWIDTH 500 0
DWIDTH 10 0
BBX 9 13 1 0
BITMAP
1000
7000
3000
3000
6E00
7300
6300
6300
6300
C600
C600
C680
C700
ENDCHAR

STARTCHAR i
ENCODING 105
SWIDTH 278 0
DWIDTH 5 0
BBX 4 13 1 0
BITMAP
30
30
00
00
E0
60
60
60
C0
C0
C0
D0
E0
ENDCHAR

STARTCHAR j
ENCODING 106
SWIDTH 278 0
DWIDTH 5 0
BBX 8 17 -3 -4
BITMAP
03
03
00
00
0E
06
06
06
06
0C
0C
0C
0C
18
18
D0
E0
ENDCHAR

STARTCHAR k
ENCODING 107
SWIDTH 444 0
DWIDTH 8 0
BBX 8 13 0 0
BITMAP
10
70
30
30
67
62
64
68
70
D8
CC
CD
C6
ENDCHAR

STARTCHAR l
ENCODING 108
SWIDTH 278 0
DWIDTH 5 0
BBX 4 13 0 0
BITMAP
10
70
30
30
60
60
60
60
60
C0
C0
D0
E0
ENDCHAR

STARTCHAR m
ENCODING 109
SWIDTH 722 0
DWIDTH 14 0
BBX 13 9 1 0
BITMAP
EE60
73B0
6330
6330
6330
C660
C660
C668
C670
ENDCHAR

STARTCHAR n
ENCODING 110
SWIDTH 500 0
DWIDTH 10 0
BBX 9 9 1 0
BITMAP
EE00
7300
6300
6300
6300
C600
C600
C680
C700
ENDCHAR

STARTCHAR o
ENCODING 111
SWIDTH 500 0
DWIDTH 10 0
BBX 8 9 1 0
BITMAP
1E
33
63
63
C3
C6
C6
CC
78
ENDCHAR

STARTCHAR p
ENCODING 112
SWIDTH 500 0
DWIDTH 10 0
BBX 10 13 -1 -4
BITMAP
0B80
3CC0
18C0
18C0
18C0
3180
3180
3B00
3600
6000
6000
6000
F000
ENDCHAR

STARTCHAR q
ENCODING 113
SWIDTH 500 0
DWIDTH 10 0
BBX 9 13 1 -4
BITMAP
0D80
3300
6300
6300
C300
C600
CE00
D600
6600
0C00
0C00
0C00
1E00
ENDCHAR

STARTCHAR r
ENCODING 114
SWIDTH 389 0
DWIDTH 7 0
BBX 6 9 1 0
BITMAP
EC
74
60
60
60
C0
C0
C0
C0
ENDCHAR

STARTCHAR s
ENCODING 115
SWIDTH 389 0
DWIDTH 7 0
BBX 7 9 0 0
BITMAP
3A
66
62
70
38
1C
8C
CC
B8
ENDCHAR

STARTCHAR t
ENCODING 116
SWIDTH 278 0
DWIDTH 5 0
BBX 4 11 1 0
BITMAP
10
20
F0
60
60
60
60
C0
C0
D0
E0
ENDCHAR

STARTCHAR u
ENCODING 117
SWIDTH 500 0
DWIDTH 10 0
BBX 10 9 0 0
BITMAP
7180
B180
3180
3180
6300
6300
6300
6740
3B80
ENDCHAR

STARTCHAR v
ENCODING 118
SWIDTH 444 0
DWIDTH 8 0
BBX 8 9 0 0
BITMAP
23
E3
61
62
32
34
38
30
20
ENDCHAR

STARTCHAR w
ENCODING 119
SWIDTH 667 0
DWIDTH 13 0
BBX 12 9 1 0
BITMAP
2130
E330
6310
6320
6720
6B40
39C0
3180
2100
ENDCHAR

STARTCHAR x
ENCODING 120
SWIDTH 444 0
DWIDTH 8 0
BBX 10 9 -1 0
BITMAP
3080
5940
1A00
0C00
0C00
0C00
1600
A680
4300
ENDCHAR

STARTCHAR y
ENCODING 121
SWIDTH 444 0
DWIDTH 8 0
BBX 9 13 -1 -4
BITMAP
1180
7180
3080
3080
1900
1900
1A00
0C00
0C00
0800
1000
D000
E000
ENDCHAR

STARTCHAR z
ENCODING 122
SWIDTH 389 0
DWIDTH 7 0
BBX 8 9 -1 0
BITMAP
1F
23
06
0C
0C
18
30
62
FC
ENDCHAR

STARTCHAR braceleft
ENCODING 123
SWIDTH 400 0
DWIDTH 8 0
BBX 7 17 1 -4
BITMAP
06
0C
18
30
30
30
30
60
C0
60
60
60
C0
C0
C0
C0
60
ENDCHAR

STARTCHAR bar
ENCODING 124
SWIDTH 200 0
DWIDTH 4 0
BBX 1 17 2 -4
BITMAP
80
80
80
80
80
80
80
80
80
80
80
80
80
80
80
80
80
ENDCHAR

STARTCHAR braceright
ENCODING 125
SWIDTH 400 0
DWIDTH 8 0
BBX 7 17 -1 -4
BITMAP
0C
06
06
06
06
0C
0C
0C
06
0C
18
18
18
18
30
60
C0
ENDCHAR

STARTCHAR asciitilde
ENCODING 126
SWIDTH 541 0
DWIDTH 10 0
BBX 9 3 1 5
BITMAP
3080
7F00
8600
ENDCHAR

STARTCHAR space
ENCODING 160
SWIDTH 250 0
DWIDTH 6 0
BBX 0 0 0 0
BITMAP
ENDCHAR

STARTCHAR Aogonek
ENCODING 161
SWIDTH 611 0
DWIDTH 12 0
BBX 12 16 -1 -3
BITMAP
0020
0060
00E0
0160
0260
0260
0460
0FE0
1060
1060
2060
4060
E0F0
0040
0060
0030
ENDCHAR

STARTCHAR afii240
ENCODING 162
SWIDTH 444 0
DWIDTH 8 0
BBX 9 8 0 0
BITMAP
7980
3200
3400
3800
6C00
6600
6300
F780
ENDCHAR

STARTCHAR Rcommaaccent
ENCODING 163
SWIDTH 611 0
DWIDTH 12 0
BBX 11 18 0 -5
BITMAP
3F80
18C0
1860
1860
30C0
3180
3E00
3600
3300
6180
6180
60C0
F0E0
0000
0800
1800
0800
1000
ENDCHAR

STARTCHAR currency
ENCODING 164
SWIDTH 500 0
DWIDTH 10 0
BBX 8 8 1 1
BITMAP
BD
42
81
81
81
81
42
BD
ENDCHAR

STARTCHAR Itilde
ENCODING 165
SWIDTH 333 0
DWIDTH 6 0
BBX 7 16 0 0
BITMAP
1A
2C
00
3C
18
18
18
30
30
30
30
30
60
60
60
F0
ENDCHAR

STARTCHAR Lcommaaccent
ENCODING 166
SWIDTH 556 0
DWIDTH 11 0
BBX 10 18 0 -5
BITMAP
3C00
1800
1800
1800
3000
3000
3000
3000
3000
6040
6040
6080
FF80
0000
0800
1800
0800
1000
ENDCHAR

STARTCHAR section
ENCODING 167
SWIDTH 500 0
DWIDTH 10 0
BBX 9 18 1 -5
BITMAP
0700
0D80
1980
1800
1800
0C00
3600
6600
6300
6300
3300
3600
1800
0C00
0C00
CC00
D800
7000
ENDCHAR

STARTCHAR hungarumlaut
ENCODING 168
SWIDTH 333 0
DWIDTH 6 0
BBX 5 2 1 11
BITMAP
48
90
ENDCHAR

STARTCHAR Scaron
ENCODING 169
SWIDTH 500 0
DWIDTH 10 0
BBX 10 16 0 0
BITMAP
0480
0300
0000
0640
0D80
1880
1880
1800
0C00
0E00
0600
0300
4300
4300
6600
9C00
ENDCHAR

STARTCHAR Emacron
ENCODING 170
SWIDTH 611 0
DWIDTH 12 0
BBX 12 15 0 0
BITMAP
07E0
0000
3FF0
1810
1810
1800
3080
3080
3F00
3100
3100
6040
6040
60C0
FFC0
ENDCHAR

STARTCHAR Gcommaaccent
ENCODING 171
SWIDTH 722 0
DWIDTH 14 0
BBX 13 18 1 -5
BITMAP
03C8
0C30
1810
3010
6000
6000
C0F0
C060
C060
C0C0
C0C0
60C0
1F00
0000
0800
1800
0800
1000
ENDCHAR

STARTCHAR afii237
ENCODING 172
SWIDTH 556 0
DWIDTH 11 0
BBX 10 13 1 0
BITMAP
FFC0
8C40
8C40
0C00
1800
1800
FF00
1800
1800
3000
3000
3000
7800
ENDCHAR

STARTCHAR hyphen
ENCODING 173
SWIDTH 333 0
DWIDTH 6 0
BBX 5 1 1 8
BITMAP
F8
ENDCHAR

STARTCHAR Zcaron
ENCODING 174
SWIDTH 556 0
DWIDTH 11 0
BBX 12 16 -1 0
BITMAP
0240
0180
0000
1FF0
1030
2060
00C0
0180
0300
0600
0C00
1800
3040
6040
C080
FF80
ENDCHAR

STARTCHAR macron
ENCODING 175
SWIDTH 333 0
DWIDTH 6 0
BBX 6 1 0 11
BITMAP
FC
ENDCHAR

STARTCHAR degree
ENCODING 176
SWIDTH 400 0
DWIDTH 8 0
BBX 6 6 2 7
BITMAP
78
84
84
84
84
78
ENDCHAR

STARTCHAR aogonek
ENCODING 177
SWIDTH 500 0
DWIDTH 10 0
BBX 9 12 1 -3
BITMAP
1D00
3300
6300
6300
C600
C600
CE00
D680
6700
0400
0600
0380
ENDCHAR

STARTCHAR ogonek
ENCODING 178
SWIDTH 333 0
DWIDTH 6 0
BBX 4 3 1 -3
BITMAP
80
C0
70
ENDCHAR

STARTCHAR rcommaaccent
ENCODING 179
SWIDTH 389 0
DWIDTH 7 0
BBX 7 14 0 -5
BITMAP
76
3A
30
30
30
60
60
60
60
00
40
C0
40
80
ENDCHAR

STARTCHAR acute
ENCODING 180
SWIDTH 333 0
DWIDTH 6 0
BBX 2 2 3 11
BITMAP
40
80
ENDCHAR

STARTCHAR itilde
ENCODING 181
SWIDTH 278 0
DWIDTH 5 0
BBX 5 12 1 0
BITMAP
68
B0
00
E0
60
60
60
C0
C0
C0
D0
E0
ENDCHAR

STARTCHAR lcommaaccent
ENCODING 182
SWIDTH 278 0
DWIDTH 5 0
BBX 5 18 -1 -5
BITMAP
08
38
18
18
30
30
30
30
30
60
60
68
70
00
40
C0
40
80
ENDCHAR

STARTCHAR caron
ENCODING 183
SWIDTH 333 0
DWIDTH 6 0
BBX 4 2 2 11
BITMAP
90
60
ENDCHAR

STARTCHAR commaaccent
ENCODING 184
SWIDTH 333 0
DWIDTH 6 0
BBX 2 4 2 -5
BITMAP
40
C0
40
80
ENDCHAR

STARTCHAR scaron
ENCODING 185
SWIDTH 389 0
DWIDTH 7 0
BBX 7 12 0 0
BITMAP
12
0C
00
3A
66
62
70
38
1C
8C
CC
B8
ENDCHAR

STARTCHAR emacron
ENCODING 186
SWIDTH 444 0
DWIDTH 8 0
BBX 8 11 1 0
BITMAP
3F
00
1C
36
66
64
C8
F0
C0
C4
78
ENDCHAR

STARTCHAR gcommaaccent
ENCODING 187
SWIDTH 500 0
DWIDTH 10 0
BBX 10 18 0 -4
BITMAP
0200
0400
0600
0400
0000
1E00
33C0
6300
6300
6300
6600
3C00
6000
3F00
7F80
C300
C200
7C00
ENDCHAR

STARTCHAR afii253
ENCODING 188
SWIDTH 278 0
DWIDTH 5 0
BBX 6 11 0 0
BITMAP
08
10
78
30
30
FC
30
60
60
68
70
ENDCHAR

STARTCHAR afii238
ENCODING 189
SWIDTH 685 0
DWIDTH 13 0
BBX 12 13 0 0
BITMAP
39E0
1A30
1C30
1830
3030
3030
3030
3030
3060
6060
6660
66C0
F380
ENDCHAR

STARTCHAR zcaron
ENCODING 190
SWIDTH 389 0
DWIDTH 7 0
BBX 8 12 -1 0
BITMAP
09
06
00
1F
23
06
0C
0C
18
30
62
FC
ENDCHAR

STARTCHAR afii254
ENCODING 191
SWIDTH 482 0
DWIDTH 10 0
BBX 8 13 1 -4
BITMAP
EE
73
63
63
63
C6
C6
C6
C6
0C
0C
68
70
ENDCHAR

STARTCHAR Amacron
ENCODING 192
SWIDTH 611 0
DWIDTH 12 0
BBX 13 15 -1 0
BITMAP
0078
0000
0020
0060
00E0
0160
0260
0260
0460
0FE0
1060
1060
2060
4060
E0F0
ENDCHAR

STARTCHAR Aacute
ENCODING 193
SWIDTH 611 0
DWIDTH 12 0
BBX 13 16 -1 0
BITMAP
0008
0010
0000
0020
0060
00E0
0160
0260
0260
0460
0FE0
1060
1060
2060
4060
E0F0
ENDCHAR

STARTCHAR Acircumflex
ENCODING 194
SWIDTH 611 0
DWIDTH 12 0
BBX 13 16 -1 0
BITMAP
0030
0048
0000
0020
0060
00E0
0160
0260
0260
0460
0FE0
1060
1060
2060
4060
E0F0
ENDCHAR

STARTCHAR Atilde
ENCODING 195
SWIDTH 611 0
DWIDTH 12 0
BBX 14 16 -1 0
BITMAP
0034
0058
0000
0020
0060
00E0
0160
0260
0260
0460
0FE0
1060
1060
2060
4060
E0F0
ENDCHAR

STARTCHAR Adieresis
ENCODING 196
SWIDTH 611 0
DWIDTH 12 0
BBX 13 15 -1 0
BITMAP
0048
0000
0020
0060
00E0
0160
0260
0260
0460
0FE0
1060
1060
2060
4060
E0F0
ENDCHAR

STARTCHAR Aring
ENCODING 197
SWIDTH 611 0
DWIDTH 12 0
BBX 12 16 -1 0
BITMAP
0060
0090
0090
0060
0060
00E0
0160
0260
0260
0460
0FE0
1060
1060
2060
4060
E0F0
ENDCHAR

STARTCHAR AE
ENCODING 198
SWIDTH 889 0
DWIDTH 17 0
BBX 18 13 -1 0
BITMAP
00FFC0
007040
00B040
013000
016100
026100
047E00
086200
1FE200
10C080
20C080
40C180
E3FF80
ENDCHAR

STARTCHAR Iogonek
ENCODING 199
SWIDTH 333 0
DWIDTH 6 0
BBX 6 16 0 -3
BITMAP
3C
18
18
18
30
30
30
30
30
60
60
60
F0
40
60
38
ENDCHAR

STARTCHAR Ccaron
ENCODING 200
SWIDTH 667 0
DWIDTH 13 0
BBX 12 16 1 0
BITMAP
0240
0180
0000
0390
0C60
1820
3020
6000
6000
C000
C000
C000
C000
C080
6300
3C00
ENDCHAR

STARTCHAR Eacute
ENCODING 201
SWIDTH 611 0
DWIDTH 12 0
BBX 12 16 0 0
BITMAP
0080
0100
0000
3FF0
1810
1810
1800
3080
3080
3F00
3100
3100
6040
6040
60C0
FFC0
ENDCHAR

STARTCHAR Eogonek
ENCODING 202
SWIDTH 611 0
DWIDTH 12 0
BBX 12 16 0 -3
BITMAP
3FF0
1810
1810
1800
3080
3080
3F00
3100
3100
6040
6040
60C0
FFC0
0400
0600
0380
ENDCHAR

STARTCHAR Edieresis
ENCODING 203
SWIDTH 611 0
DWIDTH 12 0
BBX 12 15 0 0
BITMAP
0240
0000
3FF0
1810
1810
1800
3080
3080
3F00
3100
3100
6040
6040
60C0
FFC0
ENDCHAR

STARTCHAR Edotaccent
ENCODING 204
SWIDTH 611 0
DWIDTH 12 0
BBX 12 15 0 0
BITMAP
0100
0000
3FF0
1810
1810
1800
3080
3080
3F00
3100
3100
6040
6040
60C0
FFC0
ENDCHAR

STARTCHAR Iacute
ENCODING 205
SWIDTH 333 0
DWIDTH 6 0
BBX 6 16 0 0
BITMAP
04
08
00
3C
18
18
18
30
30
30
30
30
60
60
60
F0
ENDCHAR

STARTCHAR Icircumflex
ENCODING 206
SWIDTH 333 0
DWIDTH 6 0
BBX 7 16 0 0
BITMAP
0C
12
00
3C
18
18
18
30
30
30
30
30
60
60
60
F0
ENDCHAR

STARTCHAR Imacron
ENCODING 207
SWIDTH 333 0
DWIDTH 6 0
BBX 7 15 0 0
BITMAP
3E
00
3C
18
18
18
30
30
30
30
30
60
60
60
F0
ENDCHAR

STARTCHAR Eth
ENCODING 208
SWIDTH 722 0
DWIDTH 14 0
BBX 13 13 0 0
BITMAP
3FE0
1830
1818
1818
3018
3018
7E18
3018
3030
6030
6060
60C0
FF00
ENDCHAR

STARTCHAR Ncommaaccent
ENCODING 209
SWIDTH 667 0
DWIDTH 13 0
BBX 13 18 0 -5
BITMAP
3838
1810
1C10
1C10
2620
2620
2320
2320
21A0
41C0
40C0
40C0
E040
0000
0800
1800
0800
1000
ENDCHAR

STARTCHAR Omacron
ENCODING 210
SWIDTH 722 0
DWIDTH 14 0
BBX 12 15 1 0
BITMAP
07F0
0000
03C0
0C60
1830
3030
6030
6030
C030
C060
C060
C0C0
C180
6300
3C00
ENDCHAR

STARTCHAR Kcommaaccent
ENCODING 211
SWIDTH 667 0
DWIDTH 13 0
BBX 13 18 0 -5
BITMAP
3CF0
1840
1880
1900
3200
3400
3C00
3600
3300
6180
60C0
6060
F0F8
0000
0800
1800
0800
1000
ENDCHAR

STARTCHAR Ocircumflex
ENCODING 212
SWIDTH 722 0
DWIDTH 14 0
BBX 12 16 1 0
BITMAP
00C0
0120
0000
03C0
0C60
1830
3030
6030
6030
C030
C060
C060
C0C0
C180
6300
3C00
ENDCHAR

STARTCHAR Otilde
ENCODING 213
SWIDTH 722 0
DWIDTH 14 0
BBX 12 16 1 0
BITMAP
01A0
02C0
0000
03C0
0C60
1830
3030
6030
6030
C030
C060
C060
C0C0
C180
6300
3C00
ENDCHAR

STARTCHAR Odieresis
ENCODING 214
SWIDTH 722 0
DWIDTH 14 0
BBX 12 15 1 0
BITMAP
0220
0000
03C0
0C60
1830
3030
6030
6030
C030
C060
C060
C0C0
C180
6300
3C00
ENDCHAR

STARTCHAR multiply
ENCODING 215
SWIDTH 675 0
DWIDTH 13 0
BBX 7 7 3 1
BITMAP
82
44
28
10
28
44
82
ENDCHAR

STARTCHAR Oslash
ENCODING 216
SWIDTH 722 0
DWIDTH 14 0
BBX 12 13 1 0
BITMAP
03D0
0C60
18B0
30B0
6130
6230
C230
C460
C860
D0C0
D180
6300
BC00
ENDCHAR

STARTCHAR Uogonek
ENCODING 217
SWIDTH 722 0
DWIDTH 14 0
BBX 13 16 1 -3
BITMAP
7838
3010
3010
3010
6020
6020
6020
6020
C020
C040
C040
6080
3F00
0800
0C00
0700
ENDCHAR

STARTCHAR Uacute
ENCODING 218
SWIDTH 722 0
DWIDTH 14 0
BBX 13 16 1 0
BITMAP
0080
0100
0000
7838
3010
3010
3010
6020
6020
6020
6020
C020
C040
C040
6080
3F00
ENDCHAR

STARTCHAR Ucircumflex
ENCODING 219
SWIDTH 722 0
DWIDTH 14 0
BBX 13 16 1 0
BITMAP
0180
0240
0000
7838
3010
3010
3010
6020
6020
6020
6020
C020
C040
C040
6080
3F00
ENDCHAR

STARTCHAR Udieresis
ENCODING 220
SWIDTH 722 0
DWIDTH 14 0
BBX 13 16 1 0
BITMAP
0220
0000
0000
7838
3010
3010
3010
6020
6020
6020
6020
C020
C040
C040
6080
3F00
ENDCHAR

STARTCHAR Utilde
ENCODING 221
SWIDTH 722 0
DWIDTH 14 0
BBX 13 16 1 0
BITMAP
01A0
02C0
0000
7838
3010
3010
3010
6020
6020
6020
6020
C020
C040
C040
6080
3F00
ENDCHAR

STARTCHAR Umacron
ENCODING 222
SWIDTH 722 0
DWIDTH 14 0
BBX 13 15 1 0
BITMAP
07E0
0000
7838
3010
3010
3010
6020
6020
6020
6020
C020
C040
C040
6080
3F00
ENDCHAR

STARTCHAR germandbls
ENCODING 223
SWIDTH 500 0
DWIDTH 10 0
BBX 12 17 -2 -4
BITMAP
00E0
0330
0630
0630
0660
0CC0
0C60
0C60
0C60
1860
1860
1AC0
1980
1800
3000
A000
C000
ENDCHAR

STARTCHAR amacron
ENCODING 224
SWIDTH 500 0
DWIDTH 10 0
BBX 9 11 1 0
BITMAP
0F80
0000
1D00
3300
6300
6300
C600
C600
CE00
D680
6700
ENDCHAR

STARTCHAR aacute
ENCODING 225
SWIDTH 500 0
DWIDTH 10 0
BBX 9 12 1 0
BITMAP
0200
0400
0000
1D00
3300
6300
6300
C600
C600
CE00
D680
6700
ENDCHAR

STARTCHAR acircumflex
ENCODING 226
SWIDTH 500 0
DWIDTH 10 0
BBX 9 12 1 0
BITMAP
0600
0900
0000
1D00
3300
6300
6300
C600
C600
CE00
D680
6700
ENDCHAR

STARTCHAR atilde
ENCODING 227
SWIDTH 500 0
DWIDTH 10 0
BBX 9 12 1 0
BITMAP
0680
0B00
0000
1D00
3300
6300
6300
C600
C600
CE00
D680
6700
ENDCHAR

STARTCHAR adieresis
ENCODING 228
SWIDTH 500 0
DWIDTH 10 0
BBX 9 11 1 0
BITMAP
0900
0000
1D00
3300
6300
6300
C600
C600
CE00
D680
6700
ENDCHAR

STARTCHAR aring
ENCODING 229
SWIDTH 500 0
DWIDTH 10 0
BBX 9 14 1 0
BITMAP
0600
0900
0900
0600
0000
1D00
3300
6300
6300
C600
C600
CE00
D680
6700
ENDCHAR

STARTCHAR ae
ENCODING 230
SWIDTH 667 0
DWIDTH 13 0
BBX 12 9 1 0
BITMAP
1EE0
37B0
6730
6660
C6C0
C700
CE00
D620
E3C0
ENDCHAR

STARTCHAR iogonek
ENCODING 231
SWIDTH 278 0
DWIDTH 5 0
BBX 4 16 1 -3
BITMAP
30
30
00
00
E0
60
60
60
C0
C0
C0
D0
E0
80
C0
70
ENDCHAR

STARTCHAR ccaron
ENCODING 232
SWIDTH 444 0
DWIDTH 8 0
BBX 7 12 1 0
BITMAP
12
0C
00
1C
36
66
60
C0
C0
C0
C4
78
ENDCHAR

STARTCHAR eacute
ENCODING 233
SWIDTH 444 0
DWIDTH 8 0
BBX 7 12 1 0
BITMAP
02
04
00
1C
36
66
64
C8
F0
C0
C4
78
ENDCHAR

STARTCHAR eogonek
ENCODING 234
SWIDTH 444 0
DWIDTH 8 0
BBX 7 12 1 -3
BITMAP
1C
36
66
64
C8
F0
C0
C4
78
20
30
1C
ENDCHAR

STARTCHAR edieresis
ENCODING 235
SWIDTH 444 0
DWIDTH 8 0
BBX 7 11 1 0
BITMAP
12
00
1C
36
66
64
C8
F0
C0
C4
78
ENDCHAR

STARTCHAR edotaccent
ENCODING 236
SWIDTH 444 0
DWIDTH 8 0
BBX 7 11 1 0
BITMAP
08
00
1C
36
66
64
C8
F0
C0
C4
78
ENDCHAR

STARTCHAR iacute
ENCODING 237
SWIDTH 278 0
DWIDTH 5 0
BBX 4 12 1 0
BITMAP
10
20
00
E0
60
60
60
C0
C0
C0
D0
E0
ENDCHAR

STARTCHAR icircumflex
ENCODING 238
SWIDTH 278 0
DWIDTH 5 0
BBX 5 12 1 0
BITMAP
30
48
00
E0
60
60
60
C0
C0
C0
D0
E0
ENDCHAR

STARTCHAR imacron
ENCODING 239
SWIDTH 278 0
DWIDTH 5 0
BBX 5 12 1 0
BITMAP
78
00
00
E0
60
60
60
C0
C0
C0
D0
E0
ENDCHAR

STARTCHAR dcroat
ENCODING 240
SWIDTH 500 0
DWIDTH 10 0
BBX 10 13 1 0
BITMAP
0080
0380
0FC0
0180
1B00
3700
6300
6300
C300
C600
C600
CE80
7700
ENDCHAR

STARTCHAR ncommaaccent
ENCODING 241
SWIDTH 500 0
DWIDTH 10 0
BBX 9 14 1 -5
BITMAP
EE00
7300
6300
6300
6300
C600
C600
C680
C700
0000
1000
3000
1000
2000
ENDCHAR

STARTCHAR omacron
ENCODING 242
SWIDTH 500 0
DWIDTH 10 0
BBX 8 11 1 0
BITMAP
1F
00
1E
33
63
63
C3
C6
C6
CC
78
ENDCHAR

STARTCHAR kcommaaccent
ENCODING 243
SWIDTH 444 0
DWIDTH 8 0
BBX 8 18 0 -5
BITMAP
10
70
30
30
67
62
64
68
70
D8
CC
CD
C6
00
10
30
10
20
ENDCHAR

STARTCHAR ocircumflex
ENCODING 244
SWIDTH 500 0
DWIDTH 10 0
BBX 8 12 1 0
BITMAP
06
09
00
1E
33
63
63
C3
C6
C6
CC
78
ENDCHAR

STARTCHAR otilde
ENCODING 245
SWIDTH 500 0
DWIDTH 10 0
BBX 8 12 1 0
BITMAP
0D
16
00
1E
33
63
63
C3
C6
C6
CC
78
ENDCHAR

STARTCHAR odieresis
ENCODING 246
SWIDTH 500 0
DWIDTH 10 0
BBX 8 11 1 0
BITMAP
09
00
1E
33
63
63
C3
C6
C6
CC
78
ENDCHAR

STARTCHAR divide
ENCODING 247
SWIDTH 675 0
DWIDTH 13 0
BBX 9 7 3 1
BITMAP
0800
0000
0000
FF80
0000
0000
0800
ENDCHAR

STARTCHAR oslash
ENCODING 248
SWIDTH 500 0
DWIDTH 10 0
BBX 9 10 0 0
BITMAP
0080
0F00
1B80
3580
3580
6980
6B00
7300
6600
BC00
ENDCHAR

STARTCHAR uogonek
ENCODING 249
SWIDTH 500 0
DWIDTH 10 0
BBX 10 12 0 -3
BITMAP
7180
B180
3180
3180
6300
6300
6300
6740
3B80
0200
0300
01C0
ENDCHAR

STARTCHAR uacute
ENCODING 250
SWIDTH 500 0
DWIDTH 10 0
BBX 10 12 0 0
BITMAP
0200
0400
0000
7180
B180
3180
3180
6300
6300
6300
6740
3B80
ENDCHAR

STARTCHAR ucircumflex
ENCODING 251
SWIDTH 500 0
DWIDTH 10 0
BBX 10 12 0 0
BITMAP
0600
0900
0000
7180
B180
3180
3180
6300
6300
6300
6740
3B80
ENDCHAR

STARTCHAR udieresis
ENCODING 252
SWIDTH 500 0
DWIDTH 10 0
BBX 10 11 0 0
BITMAP
0900
0000
7180
B180
3180
3180
6300
6300
6300
6740
3B80
ENDCHAR

STARTCHAR utilde
ENCODING 253
SWIDTH 500 0
DWIDTH 10 0
BBX 10 12 0 0
BITMAP
0D00
1600
0000
7180
B180
3180
3180
6300
6300
6300
6740
3B80
ENDCHAR

STARTCHAR umacron
ENCODING 254
SWIDTH 500 0
DWIDTH 10 0
BBX 10 11 0 0
BITMAP
0F80
0000
7180
B180
3180
3180
6300
6300
6300
6740
3B80
ENDCHAR

STARTCHAR dotaccent
ENCODING 255
SWIDTH 333 0
DWIDTH 6 0
BBX 1 1 3 10
BITMAP
80
ENDCHAR
ENDFONT
